<svg width="20" height="20" viewBox="0 0 20 20" fill="none" xmlns="http://www.w3.org/2000/svg">
<mask id="mask0_920_1550" style="mask-type:alpha" maskUnits="userSpaceOnUse" x="0" y="0" width="20" height="20">
<rect width="20" height="20" fill="#D9D9D9"/>
</mask>
<g mask="url(#mask0_920_1550)">
<path d="M13.3333 17.5007L13.0833 16.2507C12.9166 16.1812 12.7604 16.1083 12.6145 16.0319C12.4687 15.9555 12.3194 15.8618 12.1666 15.7507L10.9583 16.1257L10.125 14.709L11.0833 13.8757C11.0555 13.6812 11.0416 13.5007 11.0416 13.334C11.0416 13.1673 11.0555 12.9868 11.0833 12.7923L10.125 11.959L10.9583 10.5423L12.1666 10.9173C12.3194 10.8062 12.4687 10.7125 12.6145 10.6361C12.7604 10.5597 12.9166 10.4868 13.0833 10.4173L13.3333 9.16732H15L15.25 10.4173C15.4166 10.4868 15.5729 10.5632 15.7187 10.6465C15.8645 10.7298 16.0138 10.834 16.1666 10.959L17.375 10.5423L18.2083 12.0007L17.25 12.834C17.2777 13.0007 17.2916 13.1743 17.2916 13.3548C17.2916 13.5354 17.2777 13.709 17.25 13.8757L18.2083 14.709L17.375 16.1257L16.1666 15.7507C16.0138 15.8618 15.8645 15.9555 15.7187 16.0319C15.5729 16.1083 15.4166 16.1812 15.25 16.2507L15 17.5007H13.3333ZM1.66663 16.6673V14.334C1.66663 13.8757 1.78468 13.4451 2.02079 13.0423C2.2569 12.6395 2.58329 12.334 2.99996 12.1257C3.70829 11.7645 4.5069 11.459 5.39579 11.209C6.28468 10.959 7.26385 10.834 8.33329 10.834H8.62496C8.70829 10.834 8.79163 10.8479 8.87496 10.8757C8.47218 11.8757 8.30552 12.8687 8.37496 13.8548C8.4444 14.8409 8.77774 15.7784 9.37496 16.6673H1.66663ZM14.1666 15.0007C14.625 15.0007 15.0173 14.8375 15.3437 14.5111C15.6701 14.1847 15.8333 13.7923 15.8333 13.334C15.8333 12.8757 15.6701 12.4833 15.3437 12.1569C15.0173 11.8305 14.625 11.6673 14.1666 11.6673C13.7083 11.6673 13.3159 11.8305 12.9895 12.1569C12.6632 12.4833 12.5 12.8757 12.5 13.334C12.5 13.7923 12.6632 14.1847 12.9895 14.5111C13.3159 14.8375 13.7083 15.0007 14.1666 15.0007ZM8.33329 10.0007C7.41663 10.0007 6.6319 9.67426 5.97913 9.02148C5.32635 8.36871 4.99996 7.58398 4.99996 6.66732C4.99996 5.75065 5.32635 4.96593 5.97913 4.31315C6.6319 3.66037 7.41663 3.33398 8.33329 3.33398C9.24996 3.33398 10.0347 3.66037 10.6875 4.31315C11.3402 4.96593 11.6666 5.75065 11.6666 6.66732C11.6666 7.58398 11.3402 8.36871 10.6875 9.02148C10.0347 9.67426 9.24996 10.0007 8.33329 10.0007Z" fill="#1552EF"/>
</g>
</svg>
