<svg width="27" height="27" viewBox="0 0 27 27" fill="none" xmlns="http://www.w3.org/2000/svg">
<path d="M22.5524 19.6081C22.2225 20.4029 21.832 21.1345 21.3795 21.8072C20.7628 22.7242 20.2579 23.3589 19.8687 23.7114C19.2655 24.2899 18.6191 24.5862 17.927 24.6031C17.4301 24.6031 16.8309 24.4556 16.1334 24.1565C15.4336 23.8588 14.7905 23.7114 14.2024 23.7114C13.5857 23.7114 12.9243 23.8588 12.2168 24.1565C11.5083 24.4556 10.9375 24.6115 10.501 24.627C9.83733 24.6564 9.17578 24.3517 8.51543 23.7114C8.09396 23.328 7.56678 22.6708 6.93525 21.7398C6.25767 20.7455 5.7006 19.5926 5.26419 18.2782C4.7968 16.8585 4.5625 15.4837 4.5625 14.1527C4.5625 12.6281 4.8784 11.3131 5.51114 10.2112C6.00842 9.32608 6.66998 8.62787 7.49798 8.11531C8.32597 7.60275 9.22062 7.34155 10.1841 7.32484C10.7112 7.32484 11.4026 7.4949 12.2617 7.82912C13.1183 8.16446 13.6684 8.33452 13.9096 8.33452C14.0899 8.33452 14.7009 8.13567 15.7368 7.73924C16.7164 7.3716 17.5432 7.21938 18.2205 7.27934C20.0559 7.43381 21.4348 8.18833 22.3518 9.54767C20.7103 10.5849 19.8983 12.0376 19.9145 13.9012C19.9293 15.3528 20.4343 16.5608 21.4267 17.5199C21.8764 17.9651 22.3787 18.3091 22.9375 18.5535C22.8163 18.92 22.6884 19.271 22.5524 19.6081ZM18.3431 2.33404C18.3431 3.4718 17.9445 4.53412 17.15 5.51739C16.1913 6.68632 15.0316 7.36177 13.7741 7.25519C13.7581 7.11869 13.7488 6.97504 13.7488 6.82408C13.7488 5.73183 14.2047 4.56291 15.0144 3.60715C15.4186 3.12324 15.9328 2.72087 16.5562 2.3999C17.1783 2.08371 17.7668 1.90885 18.3202 1.87891C18.3363 2.03101 18.3431 2.18312 18.3431 2.33402V2.33404Z" fill="black"/>
</svg>
