<svg width="18" height="18" viewBox="0 0 18 18" fill="none" xmlns="http://www.w3.org/2000/svg">
<path d="M4.52665 10.0723L9.77665 15.3223C9.99093 15.5366 10.0936 15.7866 10.0847 16.0723C10.0758 16.358 9.96415 16.608 9.74986 16.8223C9.53558 17.0187 9.28557 17.1214 8.99986 17.1303C8.71415 17.1392 8.46415 17.0366 8.24986 16.8223L1.17843 9.75084C1.07129 9.64369 0.995396 9.52762 0.950753 9.40262C0.90611 9.27762 0.883789 9.14369 0.883789 9.00084C0.883789 8.85798 0.90611 8.72405 0.950753 8.59905C0.995396 8.47405 1.07129 8.35798 1.17843 8.25084L8.24986 1.17941C8.44629 0.98298 8.69182 0.884766 8.98647 0.884766C9.28111 0.884766 9.53558 0.98298 9.74986 1.17941C9.96415 1.39369 10.0713 1.64816 10.0713 1.9428C10.0713 2.23744 9.96415 2.49191 9.74986 2.70619L4.52665 7.92941H16.4999C16.8034 7.92941 17.0579 8.03209 17.2633 8.23744C17.4686 8.4428 17.5713 8.69727 17.5713 9.00084C17.5713 9.30441 17.4686 9.55887 17.2633 9.76423C17.0579 9.96959 16.8034 10.0723 16.4999 10.0723H4.52665Z" fill="#1552EF"/>
</svg>
