<svg width="61" height="30" viewBox="0 0 61 30" fill="none" xmlns="http://www.w3.org/2000/svg">
<path fill-rule="evenodd" clip-rule="evenodd" d="M5.42372 3.70531C5.78885 3.64956 6.17825 3.56516 6.56999 3.44321C7.18212 3.25263 7.76131 2.98309 8.25845 2.61784C8.03724 2.55444 7.80353 2.52055 7.5616 2.52055C6.66017 2.52055 5.86926 2.99376 5.42372 3.70531ZM10.0122 4.44787C9.17012 5.12978 8.21534 5.57084 7.31923 5.84983C6.63962 6.0614 5.96621 6.18885 5.35275 6.2562C5.78178 7.03443 6.61012 7.56164 7.5616 7.56164C8.95366 7.56164 10.0822 6.43316 10.0822 5.0411C10.0822 4.83663 10.0579 4.63801 10.0122 4.44787ZM2.52051 5.0411C2.52051 2.25697 4.77748 0 7.5616 0C8.95479 0 10.218 0.566808 11.1291 1.47937C12.0383 2.39002 12.6027 3.65085 12.6027 5.0411C12.6027 7.82522 10.3457 10.0822 7.5616 10.0822C4.77748 10.0822 2.52051 7.82522 2.52051 5.0411Z" fill="white"/>
<path fill-rule="evenodd" clip-rule="evenodd" d="M3.78082 13.2315C3.0848 13.2315 2.52055 13.7957 2.52055 14.4918V19.3846H4.41096C5.10698 19.3846 5.67123 19.9489 5.67123 20.6449V27.0945H9.45205V20.6449C9.45205 19.9489 10.0163 19.3846 10.7123 19.3846H12.6027V14.4918C12.6027 13.7957 12.0385 13.2315 11.3425 13.2315H3.78082ZM0 14.4918C0 12.4036 1.69274 10.7109 3.78082 10.7109H11.3425C13.4306 10.7109 15.1233 12.4036 15.1233 14.4918V19.3846C15.1233 20.7766 13.9948 21.9052 12.6027 21.9052H11.9726V27.0945C11.9726 28.4866 10.8441 29.615 9.45205 29.615H5.67123C4.27917 29.615 3.15068 28.4866 3.15068 27.0945V21.9052H2.52055C1.12849 21.9052 0 20.7766 0 19.3846V14.4918Z" fill="white"/>
<path fill-rule="evenodd" clip-rule="evenodd" d="M7.56159 10.7109C8.13989 10.7109 8.64398 11.1045 8.78423 11.6656L10.0445 16.7067C10.1519 17.1361 10.026 17.5904 9.71302 17.9034L8.45274 19.1637C7.96057 19.6559 7.16261 19.6559 6.67044 19.1637L5.41017 17.9034C5.09714 17.5904 4.9713 17.1361 5.07868 16.7067L6.33895 11.6656C6.4792 11.1045 6.98329 10.7109 7.56159 10.7109Z" fill="white"/>
<path fill-rule="evenodd" clip-rule="evenodd" d="M27.8296 9.91475C28.2395 9.69544 28.7366 9.71947 29.1234 9.97729L34.7946 13.7581C35.1453 13.9919 35.3558 14.3853 35.3558 14.8067C35.3558 15.2281 35.1453 15.6216 34.7946 15.8553L29.1234 19.6362C28.7366 19.8939 28.2395 19.918 27.8296 19.6987C27.4199 19.4794 27.1641 19.0523 27.1641 18.5875V11.0259C27.1641 10.5611 27.4199 10.1341 27.8296 9.91475ZM29.6846 13.3807V16.2327L31.8235 14.8067L29.6846 13.3807Z" fill="white"/>
<path fill-rule="evenodd" clip-rule="evenodd" d="M30.3148 9.13774C27.1827 9.13774 24.6436 11.6768 24.6436 14.809C24.6436 17.9411 27.1827 20.4802 30.3148 20.4802C33.447 20.4802 35.9861 17.9411 35.9861 14.809C35.9861 11.6768 33.447 9.13774 30.3148 9.13774ZM22.123 14.809C22.123 10.2848 25.7906 6.61719 30.3148 6.61719C34.8391 6.61719 38.5066 10.2848 38.5066 14.809C38.5066 19.3332 34.8391 23.0007 30.3148 23.0007C25.7906 23.0007 22.123 19.3332 22.123 14.809Z" fill="white"/>
<path fill-rule="evenodd" clip-rule="evenodd" d="M50.9306 3.70531C51.2957 3.64956 51.6851 3.56516 52.0768 3.44321C52.689 3.25263 53.2681 2.98309 53.7653 2.61784C53.5441 2.55444 53.3104 2.52055 53.0684 2.52055C52.167 2.52055 51.3761 2.99376 50.9306 3.70531ZM55.519 4.44787C54.677 5.12978 53.7222 5.57084 52.8261 5.84983C52.1465 6.0614 51.473 6.18885 50.8596 6.2562C51.2886 7.03443 52.117 7.56164 53.0684 7.56164C54.4605 7.56164 55.589 6.43316 55.589 5.0411C55.589 4.83663 55.5648 4.63801 55.519 4.44787ZM48.0273 5.0411C48.0273 2.25697 50.2843 0 53.0684 0C54.4616 0 55.7248 0.566808 56.6359 1.47937C57.5451 2.39002 58.1095 3.65085 58.1095 5.0411C58.1095 7.82522 55.8526 10.0822 53.0684 10.0822C50.2843 10.0822 48.0273 7.82522 48.0273 5.0411Z" fill="white"/>
<path fill-rule="evenodd" clip-rule="evenodd" d="M49.2877 13.2315C48.5916 13.2315 48.0274 13.7957 48.0274 14.4918V19.3846H49.9178C50.6138 19.3846 51.1781 19.9489 51.1781 20.6449V27.0945H54.9589V20.6449C54.9589 19.9489 55.5231 19.3846 56.2192 19.3846H58.1096V14.4918C58.1096 13.7957 57.5453 13.2315 56.8493 13.2315H49.2877ZM45.5068 14.4918C45.5068 12.4036 47.1996 10.7109 49.2877 10.7109H56.8493C58.9374 10.7109 60.6301 12.4036 60.6301 14.4918V19.3846C60.6301 20.7766 59.5017 21.9052 58.1096 21.9052H57.4794V27.0945C57.4794 28.4866 56.351 29.615 54.9589 29.615H51.1781C49.786 29.615 48.6575 28.4866 48.6575 27.0945V21.9052H48.0274C46.6353 21.9052 45.5068 20.7766 45.5068 19.3846V14.4918Z" fill="white"/>
<path fill-rule="evenodd" clip-rule="evenodd" d="M53.0684 10.7109C53.6467 10.7109 54.1508 11.1045 54.2911 11.6656L55.5513 16.7067C55.6587 17.1361 55.5329 17.5904 55.2199 17.9034L53.9596 19.1637C53.4674 19.6559 52.6694 19.6559 52.1773 19.1637L50.917 17.9034C50.604 17.5904 50.4781 17.1361 50.5855 16.7067L51.8458 11.6656C51.986 11.1045 52.4901 10.7109 53.0684 10.7109Z" fill="white"/>
</svg>
