<svg width="17" height="18" viewBox="0 0 17 18" fill="none" xmlns="http://www.w3.org/2000/svg">
<path d="M1.96879 0.388672H15.3021C15.7605 0.388672 16.1528 0.551866 16.4792 0.878255C16.8056 1.20464 16.9688 1.59701 16.9688 2.05534V11.222C16.9688 11.6803 16.8056 12.0727 16.4792 12.3991C16.1528 12.7255 15.7605 12.8887 15.3021 12.8887H11.9688V17.0553L8.63546 15.3887L5.30212 17.0553V12.8887H1.96879C1.51046 12.8887 1.1181 12.7255 0.791707 12.3991C0.465318 12.0727 0.302124 11.6803 0.302124 11.222V2.05534C0.302124 1.59701 0.465318 1.20464 0.791707 0.878255C1.1181 0.551866 1.51046 0.388672 1.96879 0.388672ZM1.96879 9.55534H15.3021V7.05534H1.96879V9.55534Z" fill="#1552EF"/>
</svg>
