<svg width="17" height="18" viewBox="0 0 17 18" fill="none" xmlns="http://www.w3.org/2000/svg">
<path d="M1.9694 0.388672H15.3027C15.7611 0.388672 16.1534 0.551866 16.4798 0.878255C16.8062 1.20464 16.9694 1.59701 16.9694 2.05534V11.222C16.9694 11.6803 16.8062 12.0727 16.4798 12.3991C16.1534 12.7255 15.7611 12.8887 15.3027 12.8887H11.9694V17.0553L8.63607 15.3887L5.30273 17.0553V12.8887H1.9694C1.51107 12.8887 1.11871 12.7255 0.792318 12.3991C0.465929 12.0727 0.302734 11.6803 0.302734 11.222V2.05534C0.302734 1.59701 0.465929 1.20464 0.792318 0.878255C1.11871 0.551866 1.51107 0.388672 1.9694 0.388672ZM1.9694 9.55534H15.3027V7.05534H1.9694V9.55534Z" fill="white"/>
</svg>
