<svg width="27" height="27" viewBox="0 0 27 27" fill="none" xmlns="http://www.w3.org/2000/svg">
<path d="M26.5 13.2539C26.5 6.0742 20.6797 0.253906 13.5 0.253906C6.32029 0.253906 0.5 6.0742 0.5 13.2539C0.5 19.7426 5.25394 25.1207 11.4688 26.096V17.0117H8.16797V13.2539H11.4688V10.3898C11.4688 7.13172 13.4096 5.33203 16.379 5.33203C17.8014 5.33203 19.2891 5.58594 19.2891 5.58594V8.78516H17.6498C16.0349 8.78516 15.5312 9.78722 15.5312 10.8153V13.2539H19.1367L18.5604 17.0117H15.5312V26.096C21.7461 25.1207 26.5 19.7426 26.5 13.2539Z" fill="#1877F2"/>
<path d="M18.5604 17.0117L19.1367 13.2539H15.5312V10.8153C15.5312 9.78722 16.0348 8.78516 17.6498 8.78516H19.2891V5.58594C19.2891 5.58594 17.8013 5.33203 16.379 5.33203C13.4096 5.33203 11.4688 7.13172 11.4688 10.3898V13.2539H8.16797V17.0117H11.4688V26.096C12.1306 26.1998 12.809 26.2539 13.5 26.2539C14.191 26.2539 14.8694 26.1998 15.5312 26.096V17.0117H18.5604Z" fill="white"/>
</svg>
