<svg width="27" height="27" viewBox="0 0 27 27" fill="none" xmlns="http://www.w3.org/2000/svg">
<g clip-path="url(#clip0_896_11915)">
<path fill-rule="evenodd" clip-rule="evenodd" d="M6.1032 13.2512C6.1032 12.4068 6.24336 11.5971 6.49381 10.8379L2.1124 7.49219C1.25847 9.22586 0.777466 11.1795 0.777466 13.2512C0.777466 15.3212 1.25806 17.2735 2.11058 19.0061L6.48955 15.654C6.24153 14.8981 6.1032 14.0915 6.1032 13.2512Z" fill="#FBBC05"/>
<path fill-rule="evenodd" clip-rule="evenodd" d="M13.7961 5.57213C15.6305 5.57213 17.2874 6.22213 18.5892 7.28569L22.3763 3.50391C20.0686 1.4948 17.1099 0.253906 13.7961 0.253906C8.65135 0.253906 4.22972 3.19597 2.11255 7.49491L6.49375 10.8406C7.50328 7.77624 10.381 5.57213 13.7961 5.57213Z" fill="#EA4335"/>
<path fill-rule="evenodd" clip-rule="evenodd" d="M13.7961 20.9325C10.3812 20.9325 7.50349 18.7284 6.49396 15.6641L2.11255 19.0091C4.22972 23.3087 8.65135 26.2507 13.7961 26.2507C16.9714 26.2507 20.003 25.1232 22.2782 23.0107L18.1194 19.7956C16.946 20.5348 15.4682 20.9325 13.7961 20.9325Z" fill="#34A853"/>
<path fill-rule="evenodd" clip-rule="evenodd" d="M26.2225 13.2542C26.2225 12.486 26.1041 11.6586 25.9265 10.8906H13.7959V15.9133H20.7785C20.4294 17.6258 19.4791 18.9423 18.1192 19.7991L22.278 23.0141C24.668 20.796 26.2225 17.4916 26.2225 13.2542Z" fill="#4285F4"/>
</g>
<defs>
<clipPath id="clip0_896_11915">
<rect width="26" height="26" fill="white" transform="translate(0.5 0.253906)"/>
</clipPath>
</defs>
</svg>
