<svg width="24" height="24" viewBox="0 0 24 24" fill="none" xmlns="http://www.w3.org/2000/svg">
<path fill-rule="evenodd" clip-rule="evenodd" d="M14.7144 23.4001H21.7715C22.671 23.4001 23.4001 22.671 23.4001 21.7715V8.74295C23.4001 8.19847 23.1281 7.68981 22.6748 7.38798L12.9034 0.873696C12.3562 0.508898 11.644 0.508898 11.0968 0.873696L1.32535 7.38798C0.872073 7.68981 0.600098 8.19847 0.600098 8.74295V21.7715C0.600098 22.671 1.32915 23.4001 2.22867 23.4001H9.28581C9.28581 23.4001 9.28581 18.9861 9.28581 16.8858C9.28581 16.2859 9.77166 15.8001 10.3715 15.8001H13.6287C14.2285 15.8001 14.7144 16.2859 14.7144 16.8858C14.7144 18.9861 14.7144 23.4001 14.7144 23.4001Z" fill="white"/>
</svg>
