<svg width="11" height="12" viewBox="0 0 11 12" fill="none" xmlns="http://www.w3.org/2000/svg">
<path d="M1.95728 10.5607L0.544189 11.0597C0.516668 11.0718 0.486321 11.0792 0.454346 11.0792C0.330876 11.079 0.230847 10.9792 0.230713 10.8556C0.230713 10.8247 0.236 10.7945 0.247314 10.7677L0.748291 9.35169L1.95728 10.5607ZM9.20532 4.34681L3.82056 9.73157L3.59595 9.05872L2.47388 8.83411L2.25024 7.71302L1.57642 7.48841L6.96118 2.10364L9.20532 4.34681ZM8.49341 0.571418C8.84386 0.220996 9.4125 0.220976 9.76294 0.571418L10.7375 1.54603C11.0878 1.89648 11.0879 2.46515 10.7375 2.81556L10.1028 3.44935L7.85864 1.20618L8.49341 0.571418Z" fill="white"/>
</svg>
