<svg width="28" height="28" viewBox="0 0 28 28" fill="none" xmlns="http://www.w3.org/2000/svg">
<path d="M19.4281 22.2565C19.0755 22.2565 18.733 22.213 18.4049 22.1328L18.9623 27.2669C19.0075 27.6833 19.359 27.9987 19.7778 27.9987H24.564C24.9828 27.9987 25.3344 27.6833 25.3795 27.2669L25.9369 22.1328C25.6088 22.2131 25.2663 22.2565 24.9138 22.2565H19.4281Z" fill="white"/>
<path d="M3.08631 22.2565C2.73369 22.2565 2.39124 22.213 2.06311 22.1328L2.62049 27.2669C2.66571 27.6833 3.01724 27.9987 3.43604 27.9987H8.22224C8.64103 27.9987 8.99256 27.6833 9.03773 27.2669L9.59511 22.1328C9.26704 22.2131 8.92453 22.2565 8.57196 22.2565H3.08631Z" fill="white"/>
<path d="M21.4675 9.50322V10.6501C21.6954 10.6938 21.9303 10.7176 22.1708 10.7176C24.2231 10.7176 25.8929 9.04789 25.8929 6.99552C25.8929 4.94316 24.2232 3.27344 22.1708 3.27344C20.6888 3.27344 19.4067 4.14423 18.8083 5.40084C20.373 6.0992 21.4675 7.67469 21.4675 9.50322Z" fill="white"/>
<path d="M13.9977 7.44417C16.0534 7.44417 17.7198 5.77774 17.7198 3.72209C17.7198 1.66643 16.0534 0 13.9977 0C11.9421 0 10.2756 1.66643 10.2756 3.72209C10.2756 5.77774 11.9421 7.44417 13.9977 7.44417Z" fill="white"/>
<path d="M13.4282 11.3152L13.9978 12.0532L14.5673 11.3152L13.9978 9.85938L13.4282 11.3152Z" fill="white"/>
<path d="M8.16858 9.50423V16.1903C8.16858 17.7599 9.43536 19.0367 10.9924 19.0367H17.0031C18.5601 19.0367 19.8269 17.7598 19.8269 16.1903V9.50423C19.8269 8.39331 19.1918 7.42961 18.2688 6.96094C17.5587 7.89505 16.5496 8.58997 15.3856 8.90218L16.2644 11.1484C16.3694 11.4167 16.3259 11.7203 16.1498 11.9484L14.6472 13.8956C14.4919 14.0968 14.252 14.2147 13.9978 14.2147C13.7435 14.2147 13.5037 14.0969 13.3484 13.8956L11.8457 11.9484C11.6697 11.7204 11.6263 11.4167 11.7312 11.1484L12.61 8.90218C11.4459 8.58997 10.4369 7.89505 9.72668 6.96094C8.80361 7.42961 8.16858 8.39326 8.16858 9.50423Z" fill="white"/>
<path d="M26.6116 10C25.6463 11.4227 24.0159 12.3594 22.1709 12.3594C21.9325 12.3594 21.6978 12.3435 21.4676 12.3132V16.1905C21.4676 18.1538 20.2058 19.8255 18.455 20.4326C18.7564 20.5512 19.0845 20.6172 19.4281 20.6172H24.9138C26.3743 20.6172 27.5626 19.4375 27.5626 17.9875V12.0165C27.5626 11.2074 27.1924 10.4828 26.6116 10Z" fill="white"/>
<path d="M5.82914 10.7176C6.06807 10.7176 6.30148 10.694 6.52794 10.6508V9.50316C6.52794 7.67316 7.62415 6.09657 9.19078 5.39914C8.59206 4.14341 7.31046 3.27344 5.82914 3.27344C3.77677 3.27344 2.10706 4.94316 2.10706 6.99552C2.10706 9.04789 3.77683 10.7176 5.82914 10.7176Z" fill="white"/>
<path d="M8.57199 20.6172C8.91472 20.6172 9.24208 20.5515 9.54297 20.4334C7.79084 19.827 6.52799 18.1547 6.52799 16.1905V12.3138C6.29918 12.3437 6.06599 12.3594 5.8292 12.3594C3.98415 12.3594 2.3538 11.4227 1.38852 10C0.80768 10.4828 0.4375 11.2074 0.4375 12.0165V17.9875C0.4375 19.4375 1.6258 20.6172 3.08634 20.6172H8.57199Z" fill="white"/>
<path d="M10.9924 20.6766C10.6737 20.6766 10.3629 20.6422 10.0629 20.5781L10.7891 27.2674C10.8342 27.6837 11.1858 27.9992 11.6046 27.9992H16.3908C16.8095 27.9992 17.1611 27.6837 17.2063 27.2674L17.9325 20.5781C17.6325 20.6422 17.3217 20.6766 17.003 20.6766H10.9924Z" fill="white"/>
</svg>
