<svg width="27" height="27" viewBox="0 0 27 27" fill="none" xmlns="http://www.w3.org/2000/svg">
<path d="M13.5 0.253906C10.0522 0.253906 6.74558 1.62355 4.30761 4.06152C1.86964 6.49949 0.5 9.80609 0.5 13.2539C0.5 16.7017 1.86964 20.0083 4.30761 22.4463C6.74558 24.8843 10.0522 26.2539 13.5 26.2539C16.9478 26.2539 20.2544 24.8843 22.6924 22.4463C25.1304 20.0083 26.5 16.7017 26.5 13.2539C26.5 9.80609 25.1304 6.49949 22.6924 4.06152C20.2544 1.62355 16.9478 0.253906 13.5 0.253906Z" fill="#0288D1"/>
<path d="M7.00049 10.0016H9.60049V19.7516H7.00049V10.0016ZM8.29269 8.70156H8.27839C7.50229 8.70156 7.00049 8.12306 7.00049 7.40091C7.00049 6.66316 7.51789 6.10156 8.30764 6.10156C9.09869 6.10156 9.58554 6.66316 9.60049 7.40091C9.60049 8.12306 9.09869 8.70156 8.29269 8.70156ZM20.6505 13.5766C20.6505 11.6019 19.0502 10.0016 17.0755 10.0016C15.8652 10.0016 14.7972 10.6048 14.1505 11.5252V10.0016H11.5505V19.7516H14.1505V14.5516C14.1505 13.4745 15.0234 12.6016 16.1005 12.6016C17.1775 12.6016 18.0505 13.4745 18.0505 14.5516V19.7516H20.6505C20.6505 19.7516 20.6505 13.8502 20.6505 13.5766Z" fill="white"/>
</svg>
