<svg width="50" height="49" viewBox="0 0 50 49" fill="none" xmlns="http://www.w3.org/2000/svg">
<path d="M49.5628 24.6536C49.5667 28.0337 48.8496 31.3772 47.4575 34.4691C46.0654 37.561 44.0291 40.3327 41.4797 42.6062C43.0606 40.3112 43.8875 37.5963 43.8492 34.8265C43.89 32.8414 43.4946 30.8709 42.6897 29.0491C41.8849 27.2273 40.6895 25.597 39.185 24.2691C36.21 21.5183 32.2553 20.0202 28.1682 20.0956C26.393 20.0718 24.6274 20.3569 22.9536 20.9376V31.1381C23.5602 30.3497 24.3497 29.7146 25.2566 29.2856C26.1635 28.8566 27.1617 28.6461 28.1682 28.6715C29.8752 28.6466 31.5248 29.2753 32.7671 30.4242C33.3797 30.9839 33.8682 31.6614 34.2022 32.4145C34.5363 33.1676 34.7087 33.9801 34.7087 34.8014C34.7087 35.6227 34.5363 36.4352 34.2022 37.1883C33.8682 37.9413 33.3797 38.6188 32.7671 39.1786C31.5134 40.3142 29.8698 40.9448 28.1635 40.9448C26.4573 40.9448 24.8136 40.3142 23.56 39.1786C22.9346 38.6331 22.4369 37.9613 22.1011 37.2093C21.7654 36.4573 21.5995 35.6428 21.615 34.822V16.1875H48.0189C49.0451 18.8963 49.568 21.7637 49.5628 24.6536Z" fill="white"/>
<path d="M17.0908 45.2476C18.9396 47.0041 21.2092 48.2757 23.6906 48.9452C20.3794 48.8006 17.1317 48.0041 14.1406 46.6032C11.1494 45.2023 8.47599 43.2255 6.27922 40.7904L11.4518 35.6924C11.299 34.8357 11.2226 33.9675 11.2232 33.0977V25.1533L1.98353 34.1045C-0.349557 28.6747 -0.591871 22.598 1.30178 17.006C3.19543 11.414 7.09597 6.68785 12.277 3.70759C17.458 0.727323 23.5665 -0.303875 29.4648 0.805984C35.3631 1.91584 40.6492 5.0911 44.3389 9.74053H5.54697V16.1885H12.5012V34.8321C12.4693 36.7883 12.8621 38.7287 13.6534 40.5245C14.4447 42.3203 15.6164 43.9304 17.0908 45.2476Z" fill="white"/>
</svg>
