<svg width="20" height="20" viewBox="0 0 20 20" fill="none" xmlns="http://www.w3.org/2000/svg">
<mask id="mask0_1213_1321" style="mask-type:alpha" maskUnits="userSpaceOnUse" x="0" y="0" width="20" height="20">
<rect x="0.841797" y="0.921875" width="18.35" height="18.35" fill="#D9D9D9"/>
</mask>
<g mask="url(#mask0_1213_1321)">
<path d="M10.017 16.9773C9.06126 16.9773 8.16606 16.7958 7.33139 16.4326C6.49672 16.0694 5.77037 15.5788 5.15233 14.9608C4.53429 14.3427 4.04368 13.6164 3.68051 12.7817C3.31733 11.947 3.13574 11.0518 3.13574 10.0961C3.13574 9.14036 3.31733 8.24517 3.68051 7.41049C4.04368 6.57582 4.53429 5.84947 5.15233 5.23143C5.77037 4.61339 6.49672 4.12279 7.33139 3.75961C8.16606 3.39643 9.06126 3.21484 10.017 3.21484V4.74401C8.52605 4.74401 7.26131 5.26329 6.22275 6.30185C5.18419 7.34041 4.66491 8.60516 4.66491 10.0961C4.66491 11.587 5.18419 12.8518 6.22275 13.8903C7.26131 14.9289 8.52605 15.4482 10.017 15.4482V16.9773ZM13.0753 13.919L12.0049 12.8295L13.9737 10.8607H7.72324V9.33151H13.9737L12.0049 7.34359L13.0753 6.27318L16.8982 10.0961L13.0753 13.919Z" fill="white"/>
</g>
</svg>
