<svg width="301" height="52" viewBox="0 0 301 52" fill="none" xmlns="http://www.w3.org/2000/svg">
<path d="M52.5628 25.6536C52.5667 29.0337 51.8496 32.3772 50.4575 35.4691C49.0654 38.561 47.0291 41.3327 44.4797 43.6062C46.0606 41.3112 46.8875 38.5963 46.8492 35.8265C46.89 33.8414 46.4946 31.8709 45.6897 30.0491C44.8849 28.2273 43.6895 26.597 42.185 25.2691C39.21 22.5183 35.2553 21.0202 31.1682 21.0956C29.393 21.0718 27.6274 21.3569 25.9536 21.9376V32.1381C26.5602 31.3497 27.3497 30.7146 28.2566 30.2856C29.1635 29.8566 30.1617 29.6461 31.1682 29.6715C32.8752 29.6466 34.5248 30.2753 35.7671 31.4242C36.3797 31.9839 36.8682 32.6614 37.2022 33.4145C37.5363 34.1676 37.7087 34.9801 37.7087 35.8014C37.7087 36.6227 37.5363 37.4352 37.2022 38.1883C36.8682 38.9413 36.3797 39.6188 35.7671 40.1786C34.5134 41.3142 32.8698 41.9448 31.1635 41.9448C29.4573 41.9448 27.8136 41.3142 26.56 40.1786C25.9346 39.6331 25.4369 38.9613 25.1011 38.2093C24.7654 37.4573 24.5995 36.6428 24.615 35.822V17.1875H51.0189C52.0451 19.8963 52.568 22.7637 52.5628 25.6536Z" fill="white"/>
<path d="M20.0908 46.2476C21.9396 48.0041 24.2092 49.2757 26.6906 49.9452C23.3794 49.8006 20.1317 49.0041 17.1406 47.6032C14.1494 46.2023 11.476 44.2255 9.27922 41.7904L14.4518 36.6924C14.299 35.8357 14.2226 34.9675 14.2232 34.0977V26.1533L4.98353 35.1045C2.65044 29.6747 2.40813 23.598 4.30178 18.006C6.19543 12.414 10.096 7.68785 15.277 4.70759C20.458 1.72732 26.5665 0.696125 32.4648 1.80598C38.3631 2.91584 43.6492 6.0911 47.3389 10.7405H8.54697V17.1885H15.5012V35.8321C15.4693 37.7883 15.8621 39.7287 16.6534 41.5245C17.4447 43.3203 18.6164 44.9304 20.0908 46.2476Z" fill="white"/>
<path d="M87.0158 7.17516V12.1775H78.0155V35.8774H72.8844V12.1775H63.884V7.17516H87.0158Z" fill="white"/>
<path d="M88.4859 35.8774L88.4649 15.3758H93.5959L93.6169 17.2004C94.3319 16.4624 95.1871 15.8815 96.1825 15.4578C97.1778 15.0204 98.2503 14.8017 99.3999 14.8017C100.171 14.8017 100.942 14.9111 101.713 15.1298L99.6943 20.1732C99.1616 19.9681 98.6288 19.8656 98.0961 19.8656C97.269 19.8656 96.5119 20.0638 95.825 20.4602C95.152 20.8429 94.6123 21.3691 94.2057 22.0388C93.8132 22.6949 93.6169 23.4261 93.6169 24.2325V35.8774H88.4859Z" fill="white"/>
<path d="M118.942 15.3758H124.073V35.8774H118.942L118.711 33.3352C118.136 34.2509 117.372 34.9958 116.419 35.5698C115.48 36.1302 114.365 36.4104 113.075 36.4104C111.519 36.4104 110.061 36.1234 108.701 35.5493C107.341 34.9753 106.143 34.1826 105.105 33.1712C104.082 32.1597 103.276 30.9912 102.687 29.6654C102.112 28.3396 101.825 26.9182 101.825 25.4011C101.825 23.9386 102.098 22.565 102.645 21.2802C103.206 19.9955 103.984 18.8679 104.979 17.8975C105.974 16.9271 107.124 16.1685 108.428 15.6218C109.732 15.0751 111.134 14.8017 112.634 14.8017C114.022 14.8017 115.262 15.1024 116.356 15.7038C117.463 16.3052 118.403 17.0706 119.174 18L118.942 15.3758ZM112.949 31.5925C114.043 31.5925 115.01 31.326 115.851 30.793C116.692 30.2599 117.351 29.5424 117.828 28.6403C118.304 27.7246 118.543 26.72 118.543 25.6266C118.543 24.5195 118.304 23.5149 117.828 22.6128C117.351 21.6971 116.685 20.9727 115.83 20.4397C114.989 19.9066 114.029 19.6401 112.949 19.6401C111.87 19.6401 110.881 19.9135 109.984 20.4602C109.101 20.9932 108.393 21.7108 107.86 22.6128C107.341 23.5149 107.082 24.5195 107.082 25.6266C107.082 26.7337 107.348 27.7382 107.881 28.6403C108.414 29.5424 109.122 30.2599 110.005 30.793C110.902 31.326 111.884 31.5925 112.949 31.5925Z" fill="white"/>
<path d="M143.751 5.125H148.882V35.8774H143.751V33.3147C143.078 34.2304 142.23 34.9753 141.206 35.5493C140.183 36.1234 138.998 36.4104 137.652 36.4104C136.124 36.4104 134.694 36.1302 133.363 35.5698C132.031 35.0095 130.853 34.2372 129.83 33.2532C128.82 32.2554 128.028 31.1073 127.453 29.8089C126.879 28.5105 126.591 27.1164 126.591 25.6266C126.591 24.1368 126.879 22.7427 127.453 21.4443C128.028 20.1458 128.82 19.0046 129.83 18.0205C130.853 17.0227 132.031 16.2437 133.363 15.6833C134.694 15.1229 136.124 14.8427 137.652 14.8427C138.998 14.8427 140.183 15.1298 141.206 15.7038C142.23 16.2642 143.078 17.0091 143.751 17.9385V5.125ZM137.716 31.5925C138.809 31.5925 139.776 31.326 140.618 30.793C141.459 30.2599 142.118 29.5424 142.594 28.6403C143.071 27.7246 143.309 26.72 143.309 25.6266C143.309 24.5195 143.071 23.5149 142.594 22.6128C142.118 21.6971 141.452 20.9727 140.596 20.4397C139.755 19.9066 138.795 19.6401 137.716 19.6401C136.636 19.6401 135.648 19.9135 134.75 20.4602C133.867 20.9932 133.159 21.7108 132.627 22.6128C132.108 23.5149 131.848 24.5195 131.848 25.6266C131.848 26.7337 132.115 27.7382 132.648 28.6403C133.18 29.5424 133.888 30.2599 134.771 30.793C135.669 31.326 136.65 31.5925 137.716 31.5925Z" fill="white"/>
<path d="M153.934 15.3758H159.065V35.8774H153.934V15.3758ZM156.541 12.7311C155.784 12.7311 155.146 12.4919 154.628 12.0135C154.109 11.5215 153.85 10.9064 153.85 10.1684C153.85 9.444 154.109 8.83579 154.628 8.34375C155.146 7.85171 155.777 7.60569 156.52 7.60569C157.263 7.60569 157.887 7.85171 158.392 8.34375C158.911 8.83579 159.17 9.444 159.17 10.1684C159.17 10.9064 158.918 11.5215 158.413 12.0135C157.908 12.4919 157.284 12.7311 156.541 12.7311Z" fill="white"/>
<path d="M183.218 22.9204V35.8774H178.087V24.2325C178.087 23.4261 177.883 22.6949 177.477 22.0388C177.07 21.3691 176.524 20.8429 175.837 20.4602C175.164 20.0638 174.414 19.8656 173.587 19.8656C172.759 19.8656 172.002 20.0638 171.315 20.4602C170.643 20.8429 170.103 21.3691 169.696 22.0388C169.304 22.6949 169.107 23.4261 169.107 24.2325V35.8774H163.976L163.955 15.3758H169.086L169.107 17.2004C169.822 16.4624 170.678 15.8815 171.673 15.4578C172.668 15.0204 173.741 14.8017 174.89 14.8017C176.418 14.8017 177.813 15.1708 179.075 15.9088C180.337 16.6332 181.339 17.6105 182.082 18.8406C182.839 20.057 183.218 21.4169 183.218 22.9204Z" fill="white"/>
<path d="M202.6 15.3758H207.731V36.2669C207.731 37.743 207.423 39.0824 206.806 40.2852C206.189 41.5016 205.348 42.5404 204.283 43.4014C203.217 44.2762 201.997 44.9459 200.624 45.4106C199.25 45.889 197.806 46.1282 196.292 46.1282C194.82 46.1282 193.404 45.8343 192.044 45.2466C190.684 44.6589 189.478 43.8525 188.427 42.8274C187.389 41.816 186.597 40.6611 186.05 39.3626L190.74 37.292C191.02 38.0437 191.441 38.6997 192.002 39.2601C192.576 39.8342 193.235 40.2784 193.978 40.5927C194.721 40.9208 195.492 41.0848 196.292 41.0848C197.105 41.0848 197.883 40.9754 198.626 40.7567C199.383 40.5381 200.063 40.2169 200.666 39.7932C201.268 39.3831 201.738 38.8774 202.074 38.276C202.425 37.6883 202.6 37.0186 202.6 36.2669V33.3762C201.941 34.2782 201.114 35.0095 200.119 35.5698C199.123 36.1302 197.974 36.4104 196.67 36.4104C195.156 36.4104 193.74 36.1302 192.422 35.5698C191.104 35.0095 189.941 34.2372 188.931 33.2532C187.936 32.2554 187.151 31.1073 186.576 29.8089C186.015 28.5105 185.735 27.1164 185.735 25.6266C185.735 24.1368 186.015 22.7427 186.576 21.4443C187.151 20.1458 187.936 19.0046 188.931 18.0205C189.941 17.0227 191.104 16.2437 192.422 15.6833C193.74 15.1229 195.156 14.8427 196.67 14.8427C197.974 14.8427 199.123 15.1229 200.119 15.6833C201.114 16.23 201.941 16.9544 202.6 17.8565V15.3758ZM196.733 31.5925C197.813 31.5925 198.766 31.326 199.593 30.793C200.434 30.2463 201.093 29.5219 201.57 28.6198C202.046 27.7041 202.285 26.7063 202.285 25.6266C202.285 24.5332 202.039 23.5354 201.549 22.6333C201.072 21.7313 200.413 21.0069 199.572 20.4602C198.745 19.9135 197.799 19.6401 196.733 19.6401C195.682 19.6401 194.721 19.9135 193.852 20.4602C192.983 20.9932 192.289 21.7108 191.77 22.6128C191.252 23.5149 190.992 24.5195 190.992 25.6266C190.992 26.7337 191.252 27.7382 191.77 28.6403C192.289 29.5424 192.983 30.2599 193.852 30.793C194.721 31.326 195.682 31.5925 196.733 31.5925Z" fill="white"/>
<path d="M222.894 35.8774V7.17516H233.619C235.175 7.17516 236.577 7.48952 237.824 8.11823C239.086 8.73328 240.081 9.62168 240.81 10.7834C241.553 11.9315 241.925 13.2915 241.925 14.8632C241.925 15.5603 241.82 16.2642 241.609 16.9749C241.399 17.6856 241.077 18.328 240.642 18.9021C240.208 19.4624 239.647 19.8793 238.96 20.1527C239.871 20.3713 240.614 20.7677 241.189 21.3417C241.764 21.9158 242.212 22.5923 242.535 23.3714C242.857 24.1368 243.075 24.9227 243.187 25.7291C243.313 26.5218 243.376 27.2599 243.376 27.9433C243.376 29.4604 242.99 30.8135 242.219 32.0026C241.448 33.1917 240.411 34.1347 239.107 34.8318C237.817 35.5288 236.387 35.8774 234.817 35.8774H222.894ZM228.025 31.5925H234.291C235.133 31.5925 235.89 31.3944 236.563 30.998C237.235 30.6016 237.775 30.0549 238.182 29.3579C238.588 28.6608 238.792 27.8681 238.792 26.9797C238.792 26.2143 238.588 25.4899 238.182 24.8065C237.775 24.1231 237.235 23.5696 236.563 23.1459C235.89 22.7222 235.133 22.5103 234.291 22.5103H228.025V31.5925ZM228.025 18.287H233.03C234.067 18.287 234.95 17.9727 235.679 17.3439C236.422 16.7152 236.794 15.8815 236.794 14.8427C236.794 13.7357 236.422 12.9019 235.679 12.3416C234.95 11.7675 234.067 11.4805 233.03 11.4805H228.025V18.287Z" fill="white"/>
<path d="M246.798 35.8774V5.125H251.929V35.8774H246.798Z" fill="white"/>
<path d="M256.984 15.3758H262.115V35.8774H256.984V15.3758ZM259.591 12.7311C258.834 12.7311 258.196 12.4919 257.678 12.0135C257.159 11.5215 256.899 10.9064 256.899 10.1684C256.899 9.444 257.159 8.83579 257.678 8.34375C258.196 7.85171 258.827 7.60569 259.57 7.60569C260.313 7.60569 260.937 7.85171 261.442 8.34375C261.96 8.83579 262.22 9.444 262.22 10.1684C262.22 10.9064 261.967 11.5215 261.463 12.0135C260.958 12.4919 260.334 12.7311 259.591 12.7311Z" fill="white"/>
<path d="M278.441 20.3782H274.361V35.8774H269.23V20.3782H266.118V15.3758H269.23V8.9383H274.361V15.3758H278.441V20.3782Z" fill="white"/>
<path d="M299.36 20.3782L288.783 30.875H299.36V35.8774H281.402V30.875L291.979 20.3782H281.402V15.3758H299.36V20.3782Z" fill="white"/>
</svg>
