<svg width="18" height="15" viewBox="0 0 18 15" fill="none" xmlns="http://www.w3.org/2000/svg">
<path d="M12.3337 14.5007L12.0837 13.2507C11.917 13.1812 11.7607 13.1083 11.6149 13.0319C11.4691 12.9555 11.3198 12.8618 11.167 12.7507L9.95866 13.1257L9.12533 11.709L10.0837 10.8757C10.0559 10.6812 10.042 10.5007 10.042 10.334C10.042 10.1673 10.0559 9.98676 10.0837 9.79232L9.12533 8.95899L9.95866 7.54232L11.167 7.91732C11.3198 7.80621 11.4691 7.71246 11.6149 7.63607C11.7607 7.55968 11.917 7.48676 12.0837 7.41732L12.3337 6.16732H14.0003L14.2503 7.41732C14.417 7.48676 14.5732 7.56315 14.7191 7.64649C14.8649 7.72982 15.0142 7.83399 15.167 7.95899L16.3753 7.54232L17.2087 9.00065L16.2503 9.83399C16.2781 10.0007 16.292 10.1743 16.292 10.3548C16.292 10.5354 16.2781 10.709 16.2503 10.8757L17.2087 11.709L16.3753 13.1257L15.167 12.7507C15.0142 12.8618 14.8649 12.9555 14.7191 13.0319C14.5732 13.1083 14.417 13.1812 14.2503 13.2507L14.0003 14.5007H12.3337ZM0.666992 13.6673V11.334C0.666992 10.8757 0.785048 10.4451 1.02116 10.0423C1.25727 9.63954 1.58366 9.33399 2.00033 9.12565C2.70866 8.76454 3.50727 8.45898 4.39616 8.20898C5.28505 7.95898 6.26421 7.83398 7.33366 7.83398H7.62533C7.70866 7.83398 7.79199 7.84787 7.87533 7.87565C7.47255 8.87565 7.30588 9.86871 7.37533 10.8548C7.44477 11.8409 7.7781 12.7784 8.37533 13.6673H0.666992ZM13.167 12.0007C13.6253 12.0007 14.0177 11.8375 14.3441 11.5111C14.6705 11.1847 14.8337 10.7923 14.8337 10.334C14.8337 9.87565 14.6705 9.48329 14.3441 9.1569C14.0177 8.83051 13.6253 8.66732 13.167 8.66732C12.7087 8.66732 12.3163 8.83051 11.9899 9.1569C11.6635 9.48329 11.5003 9.87565 11.5003 10.334C11.5003 10.7923 11.6635 11.1847 11.9899 11.5111C12.3163 11.8375 12.7087 12.0007 13.167 12.0007ZM7.33366 7.00065C6.41699 7.00065 5.63227 6.67426 4.97949 6.02148C4.32671 5.36871 4.00033 4.58398 4.00033 3.66732C4.00033 2.75065 4.32671 1.96593 4.97949 1.31315C5.63227 0.660373 6.41699 0.333984 7.33366 0.333984C8.25033 0.333984 9.03505 0.660373 9.68783 1.31315C10.3406 1.96593 10.667 2.75065 10.667 3.66732C10.667 4.58398 10.3406 5.36871 9.68783 6.02148C9.03505 6.67426 8.25033 7.00065 7.33366 7.00065Z" fill="white"/>
</svg>
