<svg width="14" height="18" viewBox="0 0 14 18" fill="none" xmlns="http://www.w3.org/2000/svg">
<path d="M0.333374 14.8327V13.166H2.00004V7.33268C2.00004 6.1799 2.34726 5.1556 3.04171 4.25977C3.73615 3.36393 4.63893 2.77713 5.75004 2.49935V1.91602C5.75004 1.56879 5.87157 1.27365 6.11462 1.0306C6.35768 0.787543 6.65282 0.666016 7.00004 0.666016C7.34726 0.666016 7.6424 0.787543 7.88546 1.0306C8.12851 1.27365 8.25004 1.56879 8.25004 1.91602V2.49935C9.36115 2.77713 10.2639 3.36393 10.9584 4.25977C11.6528 5.1556 12 6.1799 12 7.33268V13.166H13.6667V14.8327H0.333374ZM7.00004 17.3327C6.54171 17.3327 6.14935 17.1695 5.82296 16.8431C5.49657 16.5167 5.33337 16.1243 5.33337 15.666H8.66671C8.66671 16.1243 8.50351 16.5167 8.17712 16.8431C7.85074 17.1695 7.45837 17.3327 7.00004 17.3327Z" fill="#1552EF"/>
</svg>
