<svg width="24" height="24" viewBox="0 0 24 24" fill="none" xmlns="http://www.w3.org/2000/svg">
<path d="M3.05238 1.50972C2.79585 1.13685 3.03575 0.600098 3.44905 0.600098H8.54637C8.86166 0.604107 9.15443 0.764265 9.32783 1.0276L10.9691 3.4026L7.66752 8.2001L3.05238 1.50972ZM12 23.4001C8.3269 23.4001 5.34926 20.4228 5.34926 16.7501C5.34926 13.0774 8.3269 10.1001 12 10.1001C15.6731 10.1001 18.6507 13.0774 18.6507 16.7501C18.6507 20.4228 15.6731 23.4001 12 23.4001ZM12 19.7035L13.9821 20.7456C14.3221 20.9094 14.7306 20.7666 14.8944 20.4266C14.9525 20.306 14.9739 20.171 14.956 20.0383L14.5767 17.831L16.1828 16.2661C16.4436 15.9932 16.4338 15.5606 16.161 15.2999C16.0641 15.2073 15.9422 15.1452 15.8103 15.1214L13.5925 14.8002L12.6015 12.7911C12.4222 12.4589 12.0076 12.335 11.6754 12.5143C11.5581 12.5776 11.4619 12.6738 11.3986 12.7911L10.4076 14.8002L8.18974 15.1214C7.81829 15.1885 7.57162 15.5441 7.63877 15.9155C7.6626 16.0473 7.72467 16.1692 7.81725 16.2661L9.42338 17.831L9.04406 20.0383C8.99344 20.4123 9.25564 20.7566 9.62969 20.8072C9.76236 20.8251 9.89738 20.8037 10.018 20.7456L12 19.7035ZM12 8.42572C13.2528 8.42427 14.4897 8.70686 15.6175 9.25222L20.9476 1.50972C21.2042 1.13685 20.9643 0.600098 20.551 0.600098H15.4536C15.1383 0.604107 14.8456 0.764265 14.6722 1.0276L9.26132 8.88885C10.1417 8.58169 11.0676 8.42513 12 8.42572Z" fill="white"/>
</svg>
