
<svg width="28" height="28" viewBox="0 0 28 28" fill="none" xmlns="http://www.w3.org/2000/svg">
<path d="M26.2889 16.3498L24.0945 15.0913C24.1322 14.7255 24.1537 14.3544 24.1537 13.9995C24.1537 13.6445 24.1322 13.2734 24.0999 12.913L26.2889 11.6491C26.7891 11.3586 27.1494 10.8907 27.3 10.3314C27.4453 9.77204 27.37 9.19115 27.0795 8.69098L25.1379 5.32409C24.8528 4.82391 24.3849 4.46352 23.8256 4.31833C23.2662 4.16772 22.68 4.24302 22.1798 4.53347L19.9908 5.80812C19.4045 5.37784 18.7699 5.01215 18.1083 4.71634V2.18311C18.1083 0.989117 17.1348 0.015625 15.9408 0.015625H12.0576C10.8636 0.015625 9.89006 0.989117 9.89006 2.18311L9.90083 4.71634C9.23392 5.01215 8.59927 5.3779 8.01302 5.79741L5.81863 4.53347C5.31846 4.24302 4.73221 4.16772 4.17822 4.31833C3.61888 4.46352 3.15097 4.82391 2.86053 5.32409L0.918903 8.69098C0.628512 9.19115 0.553208 9.77204 0.703817 10.3314C0.854426 10.8907 1.20935 11.3586 1.70957 11.6491L3.90932 12.9076C3.86634 13.2734 3.84479 13.6445 3.84479 13.9994C3.84479 14.3544 3.86634 14.7255 3.90397 15.0859L1.70952 16.3498C1.20929 16.6403 0.854372 17.1082 0.703762 17.6675C0.553153 18.2269 0.628458 18.8078 0.918848 19.308L2.86047 22.6748C3.15092 23.175 3.61882 23.5353 4.17817 23.6806C4.73757 23.8312 5.3184 23.7559 5.81857 23.4655L8.01296 22.1908C8.59922 22.6211 9.23386 22.9868 9.89 23.2826V25.8159C9.89 27.0099 10.8635 27.9834 12.0575 27.9834H15.9407C17.1348 27.9834 18.1083 27.0099 18.1083 25.8159L18.1029 23.2826C18.7698 22.9868 19.4045 22.6211 19.9907 22.2016L22.1798 23.4655C22.6799 23.756 23.2662 23.8313 23.8255 23.6807C24.3849 23.5354 24.8528 23.1751 25.1379 22.6749L27.0795 19.308C27.3699 18.8078 27.4452 18.2269 27.3 17.6676C27.1494 17.1082 26.789 16.6403 26.2889 16.3498ZM14.0001 18.5595C11.4784 18.5595 9.43593 16.5171 9.43593 14.0008C9.43593 11.4791 11.4784 9.43664 14.0001 9.43664C16.5218 9.43664 18.5643 11.4791 18.5643 14.0008C18.5643 16.5171 16.5218 18.5595 14.0001 18.5595Z" fill="white"/>
</svg>
