<svg width="16" height="30" viewBox="0 0 16 30" fill="none" xmlns="http://www.w3.org/2000/svg">
<path d="M7.77965 30C9.843 29.9975 11.821 29.1764 13.2796 27.717C14.7382 26.2576 15.5581 24.279 15.5593 22.2157C15.5595 21.0394 15.2901 19.8786 14.772 18.8226C14.9659 18.4371 15.0685 18.0122 15.0719 17.5807V11.7225C15.0719 9.37924 13.4035 7.50462 11.3555 7.50462H10.0198C10.7557 7.02233 11.3163 6.31542 11.6182 5.48901C11.9201 4.6626 11.9472 3.76082 11.6956 2.91774C11.4439 2.07467 10.9269 1.33532 10.2214 0.809636C9.51583 0.283952 8.65949 0 7.77965 0C6.89982 0 6.04348 0.283952 5.33795 0.809636C4.63243 1.33532 4.1154 2.07467 3.86373 2.91774C3.61207 3.76082 3.63922 4.6626 3.94114 5.48901C4.24305 6.31542 4.80362 7.02233 5.53949 7.50462H4.20382C3.70319 7.51034 3.20966 7.6238 2.75679 7.83729C2.30392 8.05079 1.90234 8.35931 1.57936 8.74187C0.865321 9.56974 0.477154 10.6293 0.4874 11.7225V17.5807C0.487082 18.0141 0.589892 18.4414 0.787338 18.8273C0.269702 19.8818 0.000375516 21.0409 0 22.2157C0.00247766 24.2786 0.822764 26.2565 2.28106 27.7156C3.73936 29.1748 5.71669 29.9963 7.77965 30ZM7.77965 1.88078C8.21715 1.88078 8.64483 2.01051 9.0086 2.25357C9.37237 2.49664 9.65589 2.84211 9.82332 3.24631C9.99074 3.65051 10.0345 4.09528 9.9492 4.52437C9.86384 4.95347 9.65317 5.34761 9.34381 5.65697C9.03445 5.96633 8.6403 6.17701 8.2112 6.26236C7.78211 6.34772 7.33734 6.30391 6.93314 6.13649C6.52894 5.96906 6.18347 5.68554 5.9404 5.32177C5.69734 4.958 5.56761 4.53032 5.56761 4.09282C5.56885 3.50653 5.8023 2.94461 6.21687 2.53004C6.63144 2.11547 7.19336 1.88201 7.77965 1.88078ZM2.36202 11.7225C2.36202 10.4337 3.18685 9.37924 4.20382 9.37924H11.3555C11.611 9.38592 11.8616 9.45158 12.0876 9.57108C12.3136 9.69059 12.5089 9.86071 12.6583 10.0682C13.0163 10.5447 13.2059 11.1266 13.1973 11.7225V16.6434C12.9155 16.3692 12.6131 16.1169 12.2928 15.8888V11.7225C12.2928 11.4739 12.194 11.2355 12.0183 11.0597C11.8425 10.8839 11.6041 10.7852 11.3555 10.7852C11.1069 10.7852 10.8685 10.8839 10.6927 11.0597C10.5169 11.2355 10.4182 11.4739 10.4182 11.7225V14.9047C8.71464 14.2799 6.84466 14.2799 5.14113 14.9047V11.7225C5.14113 11.4739 5.04238 11.2355 4.8666 11.0597C4.69082 10.8839 4.45241 10.7852 4.20382 10.7852C3.95524 10.7852 3.71683 10.8839 3.54105 11.0597C3.36527 11.2355 3.26652 11.4739 3.26652 11.7225V15.8888C2.94624 16.1169 2.64386 16.3692 2.36202 16.6434V11.7225ZM7.77965 16.3106C8.94888 16.3097 10.0921 16.6556 11.0647 17.3046C12.0373 17.9537 12.7954 18.8766 13.2433 19.9566C13.6912 21.0367 13.8086 22.2253 13.5807 23.3721C13.3529 24.5189 12.7899 25.5724 11.9631 26.3992C11.1364 27.2259 10.0829 27.7889 8.93612 28.0167C7.78931 28.2446 6.60067 28.1272 5.52062 27.6793C4.44057 27.2314 3.51764 26.4733 2.86863 25.5007C2.21962 24.5281 1.87369 23.3849 1.87462 22.2157C1.87586 20.6499 2.49839 19.1487 3.60553 18.0415C4.71267 16.9344 6.21392 16.3119 7.77965 16.3106Z" fill="white"/>
</svg>
