<svg width="28" height="28" viewBox="0 0 28 28" fill="none" xmlns="http://www.w3.org/2000/svg">
<path fill-rule="evenodd" clip-rule="evenodd" d="M22.3125 21.875H21.4375V7C21.4375 6.51656 21.0481 6.125 20.5625 6.125H19.25C18.0425 6.125 17.0625 7.10456 17.0625 8.3125V21.875H16.1875V10.0625C16.1875 9.57906 15.7981 9.1875 15.3125 9.1875H14C13.4181 9.1875 12.8625 9.41806 12.4512 9.828C12.0444 10.2384 11.8125 10.7949 11.8125 11.375V21.875H10.9375V12.25C10.9375 11.7666 10.5481 11.375 10.0625 11.375H8.75C7.5425 11.375 6.5625 12.3546 6.5625 13.5625V21.875H5.6875V14C5.6875 13.5166 5.29812 13.125 4.8125 13.125H3.5C2.2925 13.125 1.3125 14.1046 1.3125 15.3125V21.9923C1.05 22.1436 0.875 22.4263 0.875 22.75C0.875 23.233 1.26875 23.625 1.75 23.625H26.25C26.7313 23.625 27.125 23.233 27.125 22.75C27.125 22.4263 26.95 22.1436 26.6875 21.9923V3.5C26.6875 3.01656 26.2981 2.625 25.8125 2.625H24.5C23.2925 2.625 22.3125 3.60456 22.3125 4.8125V21.875ZM13.6368 4.375L11.8868 6.125H10.0625C9.83062 6.125 9.60754 6.21731 9.44566 6.38137L6.82066 9.00637C6.47504 9.34762 6.47504 9.90238 6.82066 10.2436C7.16191 10.5853 7.71309 10.5853 8.05434 10.2436L10.4257 7.875H12.25C12.4819 7.875 12.705 7.78269 12.8668 7.61863L14.875 5.61225V5.6875C14.875 6.1705 15.2688 6.5625 15.75 6.5625C16.2312 6.5625 16.625 6.1705 16.625 5.6875V3.5C16.625 3.01656 16.2356 2.625 15.75 2.625H13.5625C13.0813 2.625 12.6875 3.017 12.6875 3.5C12.6875 3.983 13.0813 4.375 13.5625 4.375H13.6368Z" fill="white"/>
</svg>
