<svg width="24" height="24" viewBox="0 0 24 24" fill="none" xmlns="http://www.w3.org/2000/svg">
<path d="M12.0001 0.600098C5.73127 0.600098 0.600098 5.7313 0.600098 12.0001C0.600098 18.2689 5.73127 23.4001 12.0001 23.4001C18.2689 23.4001 23.4001 18.2689 23.4001 12.0001C23.4001 5.7313 18.2689 0.600098 12.0001 0.600098ZM15.7609 15.6481C15.3049 16.1041 14.6209 16.1041 14.1649 15.6481L11.2033 12.6841C10.9753 12.4561 10.8601 12.2281 10.8601 11.8849V6.3001C10.8601 5.61609 11.3161 5.1601 12.0001 5.1601C12.6841 5.1601 13.1401 5.61609 13.1401 6.3001V11.4313L15.7609 14.0521C16.2169 14.5081 16.2169 15.1921 15.7609 15.6481Z" fill="white"/>
</svg>
